<svg width="701" height="661" viewBox="0 0 701 661" fill="none" xmlns="http://www.w3.org/2000/svg">
<path d="M320.005 372.052C336.903 387.796 363.098 387.796 379.995 372.052L477.41 281.284C489.16 270.336 494.011 253.855 490.067 238.286L448.929 75.913C443.983 56.3914 426.415 42.7191 406.276 42.7191H293.724C273.585 42.7191 256.017 56.3913 251.071 75.9129L209.933 238.286C205.989 253.855 210.84 270.336 222.59 281.284L320.005 372.052Z" fill="#FBF6EE"/>
<path d="M543.176 411.236C558.79 431.378 589.21 431.378 604.824 411.236L684.108 308.956C690.902 300.192 693.644 288.95 691.647 278.042L654.501 75.0465C651.111 56.5226 634.969 43.0667 616.138 43.0667H531.862C513.031 43.0667 496.889 56.5227 493.499 75.0465L456.353 278.042C454.356 288.95 457.098 300.192 463.892 308.956L543.176 411.236Z" fill="#333333"/>
<path d="M96.1763 411.236C111.79 431.378 142.21 431.378 157.824 411.236L237.108 308.956C243.902 300.192 246.644 288.95 244.647 278.042L207.501 75.0465C204.111 56.5226 187.969 43.0667 169.138 43.0667H84.8622C66.0307 43.0667 49.8889 56.5227 46.4992 75.0465L9.35253 278.042C7.35648 288.95 10.0981 300.192 16.8918 308.956L96.1763 411.236Z" fill="#333333"/>
<path d="M183.419 594.678C197.997 622.636 238.004 622.636 252.581 594.678L348.598 410.531C354.49 399.232 354.49 385.768 348.598 374.469L252.581 190.322C238.003 162.364 197.996 162.364 183.419 190.322L87.4018 374.469C81.5103 385.768 81.5103 399.232 87.4018 410.531L183.419 594.678Z" fill="#FD105E"/>
<path d="M452.419 594.678C466.997 622.636 507.004 622.636 521.581 594.678L617.598 410.531C623.49 399.232 623.49 385.768 617.598 374.469L521.581 190.322C507.003 162.364 466.996 162.364 452.419 190.322L356.402 374.469C350.51 385.768 350.51 399.232 356.402 410.531L452.419 594.678Z" fill="#F2C6C2"/>
</svg>
